<?xml version="1.0" encoding="UTF-8"?><svg id="Ebene_1" xmlns="http://www.w3.org/2000/svg" viewBox="0 0 128 128"><path d="m8.29,98.19l2.83,18.75c.35,2.59,3.54,3.54,5.31,1.77l13.32-13.44c2.12-2.12,3.66-4.6,4.95-7.19l-26.18-8.73c-.47,2.95-.71,5.9-.24,8.84h0Z"/><path d="m60.52,21.66c1.18-3.66-.83-7.55-4.36-8.73l-13.91-4.6c-3.66-1.18-7.55.83-8.73,4.36L11.35,79.91l27.12,8.96L60.52,21.66Z"/><path d="m115.25,110.8H42.13c-2.48,0-4.6,2-4.6,4.6s2,4.6,4.6,4.6h73.13c2.48,0,4.6-2,4.6-4.6,0-2.59-2-4.6-4.6-4.6h0Z"/><path d="m49.67,94.12c0,2.48,2,4.6,4.6,4.6h61.1c2.48,0,4.6-2,4.6-4.6s-2-4.6-4.6-4.6h-61.1c-2.59,0-4.6,2.01-4.6,4.6h0Z"/><path d="m56.71,72.85c0,2.48,2,4.6,4.6,4.6h54.07c2.48,0,4.6-2,4.6-4.6s-2-4.6-4.6-4.6h-54.07c-2.59,0-4.6,2.01-4.6,4.6h0Z"/></svg>