<?xml version="1.0" encoding="UTF-8"?><svg id="Ebene_1" xmlns="http://www.w3.org/2000/svg" viewBox="0 0 128 128"><defs><style>.cls-1{fill-rule:evenodd;}</style></defs><path d="m49.23,33.11v-13.31c0-3.01,2.46-5.47,5.47-5.47h13.32c2.34,0,4.43,1.71,4.64,4.04.25,2.67-1.85,4.9-4.45,4.9h-10.04v17c0,.43-.5.66-.82.38l-7.59-6.41c-.34-.29-.53-.7-.53-1.15Z"/><path d="m73.32,109.62c-.22,2.33-2.3,4.04-4.64,4.04h-13.99c-3.01,0-5.47-2.46-5.47-5.47v-13.17c0-.44.19-.85.52-1.14l7.59-6.5c.32-.28.83-.05.83.38v16.95h10.69c2.62,0,4.7,2.23,4.45,4.9Z"/><path d="m68.91,63.91c0,.94-.39,1.88-1.16,2.56l-9.57,8.34-6.67,5.81-2.28,1.99-4.62,4.02s-.03.02-.04.03c-.51.41-1,.57-1.58.57-.34,0-.68-.08-1.02-.26-.84-.43-1.45-1.27-1.45-2.21v-10.72H10.46c-1.36,0-2.46-1.1-2.46-2.46v-15.24c0-1.36,1.1-2.45,2.45-2.45h29.9v-10.73c0-.67.3-1.28.78-1.74.44-.42,1.04-.65,1.65-.65h.03c.58.02,1.13.22,1.62.61l.06.05,4.74,4.06,2.24,1.92,6.71,5.74,9.55,8.19c.79.68,1.18,1.62,1.18,2.57Z"/><path class="cls-1" d="m117.96,108.23l-34.52,11.49c-2.57.86-5.23-1.06-5.23-3.77V12.05c0-2.57,2.4-4.46,4.89-3.87l34.61,8.23c1.34.32,2.29,1.52,2.29,2.9v86.08c0,1.28-.82,2.42-2.04,2.83Z"/></svg>