<?xml version="1.0" encoding="UTF-8" standalone="no"?>
<!DOCTYPE svg PUBLIC "-//W3C//DTD SVG 1.1//EN" "http://www.w3.org/Graphics/SVG/1.1/DTD/svg11.dtd">
<svg width="100%" height="100%" viewBox="0 0 128 128" version="1.1" xmlns="http://www.w3.org/2000/svg" xmlns:xlink="http://www.w3.org/1999/xlink" xml:space="preserve" xmlns:serif="http://www.serif.com/" style="fill-rule:evenodd;clip-rule:evenodd;stroke-linejoin:round;stroke-miterlimit:2;">
    <path d="M101.56,17C106.76,17 111,21.23 111,26.44L111,101.57C111,106.77 106.77,111.01 101.56,111.01L26.44,111.01C21.24,111.01 17,106.78 17,101.57L17,26.44C17,21.24 21.23,17 26.44,17L101.57,17M101.57,8L26.44,8C16.26,8 8,16.25 8,26.44L8,101.57C8,111.75 16.25,120.01 26.44,120.01L101.57,120.01C111.75,120.01 120.01,111.76 120.01,101.57L120.01,26.44C120.01,16.26 111.76,8 101.57,8Z" style="fill:white;fill-rule:nonzero;"/>
    <path d="M64,88.5C66.484,88.5 68.5,90.516 68.5,93C68.5,95.484 66.484,97.5 64,97.5L42.5,97.5C35.876,97.5 30.5,92.124 30.5,85.5L30.5,64C30.5,61.516 32.516,59.5 35,59.5C37.484,59.5 39.5,61.516 39.5,64L39.5,85.5C39.5,87.156 40.844,88.5 42.5,88.5L64,88.5Z" style="fill:white;"/>
    <path d="M64,39.5C61.516,39.5 59.5,37.484 59.5,35C59.5,32.516 61.516,30.5 64,30.5L85.5,30.5C92.124,30.5 97.5,35.876 97.5,42.5L97.5,64C97.5,66.484 95.484,68.5 93,68.5C90.516,68.5 88.5,66.484 88.5,64L88.5,42.5C88.5,40.844 87.156,39.5 85.5,39.5L64,39.5Z" style="fill:white;"/>
</svg>
