<?xml version="1.0" encoding="UTF-8"?><svg id="Ebene_1" xmlns="http://www.w3.org/2000/svg" viewBox="0 0 128 128"><path d="m118.82,32.31l-5.78-5.78h0s-11.57-11.58-11.57-11.58h-.01s-5.78-5.79-5.78-5.79c-1.04-1.01-2.53-1.4-3.93-1.02-1.4.38-2.49,1.47-2.87,2.87-.38,1.4,0,2.89,1.02,3.93l2.89,2.89-11.57,11.57-8.68-8.68c-1.04-1-2.53-1.37-3.91-.99-1.39.38-2.47,1.47-2.86,2.85-.38,1.39,0,2.87.99,3.91l5.79,5.79-43.39,43.4c-2.57,2.55-4.22,5.89-4.67,9.49-.45,3.6.32,7.24,2.18,10.35l-17.48,17.48c-.74.78-1.15,1.81-1.14,2.88,0,1.07.43,2.1,1.19,2.86.75.77,1.77,1.21,2.84,1.24,1.08,0,2.13-.43,2.89-1.2l17.48-17.48h0c3.11,1.87,6.75,2.64,10.35,2.18,3.6-.45,6.94-2.09,9.49-4.67l43.39-43.39,5.79,5.79c.77.77,1.81,1.2,2.89,1.2,1.07-.03,2.09-.47,2.84-1.24.75-.77,1.18-1.79,1.19-2.86,0-1.07-.4-2.11-1.14-2.88l-8.68-8.68,11.57-11.57,2.89,2.89h0c.77.77,1.81,1.2,2.89,1.2,1.07-.03,2.09-.47,2.84-1.23.75-.77,1.18-1.79,1.19-2.86,0-1.07-.4-2.11-1.14-2.88h0Zm-34.65,23.08l-2.54-2.54c-1.04-1.01-2.53-1.4-3.93-1.02-1.4.38-2.49,1.47-2.87,2.87-.38,1.4,0,2.89,1.02,3.93l2.54,2.54-6.49,6.49-2.54-2.54c-1.04-1.01-2.53-1.4-3.93-1.02-1.4.38-2.49,1.47-2.87,2.87-.38,1.4,0,2.89,1.02,3.93l2.54,2.54-6.49,6.49-2.54-2.54c-1.04-1.01-2.53-1.4-3.93-1.02-1.4.38-2.49,1.47-2.87,2.87-.38,1.4,0,2.89,1.02,3.93l2.54,2.54-7.34,7.34h0c-1.56,1.49-3.63,2.32-5.79,2.32s-4.23-.83-5.79-2.32c-1.54-1.53-2.4-3.62-2.4-5.79s.86-4.25,2.4-5.79l43.39-43.39,11.57,11.57-5.72,5.72Zm8.62-14.4l-5.79-5.78,11.57-11.57,5.79,5.79-11.57,11.57Z"/></svg>