<?xml version="1.0" encoding="UTF-8" standalone="no"?>
<!DOCTYPE svg PUBLIC "-//W3C//DTD SVG 1.1//EN" "http://www.w3.org/Graphics/SVG/1.1/DTD/svg11.dtd">
<svg width="100%" height="100%" viewBox="0 0 128 128" version="1.1" xmlns="http://www.w3.org/2000/svg" xmlns:xlink="http://www.w3.org/1999/xlink" xml:space="preserve" xmlns:serif="http://www.serif.com/" style="fill-rule:evenodd;clip-rule:evenodd;stroke-linejoin:round;stroke-miterlimit:2;">
    <path d="M118.82,32.31L113.04,26.53L101.47,14.95L101.46,14.95L95.68,9.16C94.64,8.15 93.15,7.76 91.75,8.14C90.35,8.52 89.26,9.61 88.88,11.01C88.5,12.41 88.88,13.9 89.9,14.94L92.79,17.83L81.22,29.4L72.54,20.72C71.5,19.72 70.01,19.35 68.63,19.73C67.24,20.11 66.16,21.2 65.77,22.58C65.39,23.97 65.77,25.45 66.76,26.49L72.55,32.28L29.16,75.68C26.59,78.23 24.94,81.57 24.49,85.17C24.04,88.77 24.81,92.41 26.67,95.52L9.19,113C8.45,113.78 8.04,114.81 8.05,115.88C8.05,116.95 8.48,117.98 9.24,118.74C9.99,119.51 11.01,119.95 12.08,119.98C13.16,119.98 14.21,119.55 14.97,118.78L32.45,101.3C35.56,103.17 39.2,103.94 42.8,103.48C46.4,103.03 49.74,101.39 52.29,98.81L95.68,55.42L101.47,61.21C102.24,61.98 103.28,62.41 104.36,62.41C105.43,62.38 106.45,61.94 107.2,61.17C107.95,60.4 108.38,59.38 108.39,58.31C108.39,57.24 107.99,56.2 107.25,55.43L98.57,46.75L110.14,35.18L113.03,38.07C113.8,38.84 114.84,39.27 115.92,39.27C116.99,39.24 118.01,38.8 118.76,38.04C119.51,37.27 119.94,36.25 119.95,35.18C119.95,34.11 119.55,33.07 118.81,32.3L118.82,32.31ZM84.17,55.39L81.63,52.85C80.59,51.84 79.1,51.45 77.7,51.83C76.3,52.21 75.21,53.3 74.83,54.7C74.45,56.1 74.83,57.59 75.85,58.63L78.39,61.17L71.9,67.66L69.36,65.12C68.32,64.11 66.83,63.72 65.43,64.1C64.03,64.48 62.94,65.57 62.56,66.97C62.18,68.37 62.56,69.86 63.58,70.9L66.12,73.44L59.63,79.93L57.09,77.39C56.05,76.38 54.56,75.99 53.16,76.37C51.76,76.75 50.67,77.84 50.29,79.24C49.91,80.64 50.29,82.13 51.31,83.17L53.85,85.71L46.51,93.05C44.95,94.54 42.88,95.37 40.72,95.37C38.56,95.37 36.49,94.54 34.93,93.05C33.39,91.52 32.53,89.43 32.53,87.26C32.53,85.09 33.39,83.01 34.93,81.47L78.32,38.08L89.89,49.65L84.17,55.37L84.17,55.39ZM92.79,40.99L87,35.21L98.57,23.64L104.36,29.43L92.79,41L92.79,40.99Z" style="fill:white;fill-rule:nonzero;"/>
</svg>
