<?xml version="1.0" encoding="UTF-8"?><svg id="Ebene_1" xmlns="http://www.w3.org/2000/svg" viewBox="0 0 128 128"><path d="m111.39,58.7l-26.05-12.85c-.99-.49-2.15.23-2.15,1.34v6.59c0,.57.32,1.09.83,1.34l23.43,11.56c.9.45,1.04,1.24,1.04,1.68s-.13,1.22-1.03,1.68l-41.46,20.59c-1.23.62-2.71.62-3.94,0l-41.52-20.47c-.9-.45-1.04-1.24-1.04-1.67s.14-1.23,1.04-1.68l23.44-11.65c.51-.25.83-.77.83-1.33v-6.6c0-1.11-1.16-1.83-2.15-1.33l-26.07,12.95c-3.69,1.83-5.98,5.53-5.98,9.65,0,4.13,2.31,7.82,6.01,9.64l41.51,20.47c1.86.91,3.88,1.37,5.91,1.37s4.07-.47,5.93-1.39l41.46-20.59c3.69-1.84,5.98-5.53,5.98-9.65,0-4.13-2.31-7.83-6.01-9.64Z"/><path d="m113.19,87.21l-47.2,23.43c-1.25.62-2.68.62-3.94,0l-47.25-23.31c-2.2-1.08-4.87-.18-5.96,2.02-1.09,2.2-.18,4.87,2.02,5.96l47.26,23.31c1.85.91,3.88,1.36,5.9,1.36s4.09-.46,5.94-1.39l47.19-23.43c2.2-1.09,3.1-3.76,2.01-5.96-1.09-2.2-3.77-3.11-5.96-2h0Z"/><path d="m61.33,9.19c1.35-1.57,3.78-1.58,5.14-.02l20.16,23.12c.43.51.59,1.02.59,1.62,0,.34-.08.68-.25,1.02-.43.85-1.28,1.45-2.21,1.45h-10.71v30.04c0,1.36-1.1,2.46-2.46,2.46h-15.23c-1.36,0-2.46-1.1-2.46-2.46v-29.87h-10.72c-.66,0-1.28-.3-1.74-.78-.43-.45-.66-1.06-.64-1.68.01-.58.22-1.14.6-1.62l19.95-23.27Z"/></svg>