<?xml version="1.0" encoding="UTF-8"?><svg id="Ebene_1" xmlns="http://www.w3.org/2000/svg" viewBox="0 0 128 128"><path d="m117.33,103.96l-26.74-26.74c6.01-9.31,8.36-20.51,6.6-31.45-1.76-10.94-7.5-20.84-16.13-27.8-8.62-6.96-19.52-10.48-30.58-9.89-11.06.59-21.52,5.26-29.35,13.1-7.83,7.84-12.48,18.3-13.07,29.36-.58,11.06,2.95,21.95,9.92,30.57,6.97,8.62,16.87,14.35,27.81,16.1,10.94,1.75,22.14-.61,31.45-6.63l26.73,26.74c1.73,1.71,4.06,2.67,6.49,2.67s4.76-.96,6.49-2.67l.38-.38c1.71-1.73,2.67-4.06,2.67-6.49s-.96-4.76-2.67-6.49h0Zm-40.29-26.9c-6.41,6.41-15.1,10.01-24.17,10.01-9.07,0-17.76-3.6-24.17-10.01-6.41-6.41-10.01-15.11-10.01-24.17s3.6-17.76,10.01-24.17c6.41-6.41,15.11-10.01,24.17-10.01,9.07,0,17.76,3.6,24.17,10.01,6.41,6.41,10.01,15.1,10.01,24.17s-3.6,17.76-10.01,24.17h0Z"/><path d="m66.08,46.78h-6.83v-6.98c0-1.35-.53-2.65-1.49-3.6-.96-.95-2.26-1.48-3.61-1.47h-2.25c-1.35-.01-2.64.52-3.59,1.47-.95.95-1.48,2.25-1.46,3.6v7h-7.05c-1.36,0-2.67.53-3.64,1.49-.97.96-1.52,2.26-1.54,3.62v2.22c.03,1.35.59,2.64,1.56,3.58.97.94,2.27,1.47,3.62,1.47h7.01v6.85c-.01,1.35.52,2.65,1.48,3.6.96.95,2.26,1.48,3.62,1.46h2.23,0c1.35.01,2.65-.52,3.6-1.47s1.5-2.24,1.5-3.59v-6.85h6.83,0c1.35,0,2.65-.53,3.6-1.49.95-.96,1.48-2.26,1.47-3.61v-2.18c.02-1.35-.5-2.66-1.45-3.62-.95-.96-2.25-1.5-3.6-1.5h0Z"/></svg>