<?xml version="1.0" encoding="UTF-8" standalone="no"?>
<!DOCTYPE svg PUBLIC "-//W3C//DTD SVG 1.1//EN" "http://www.w3.org/Graphics/SVG/1.1/DTD/svg11.dtd">
<svg width="100%" height="100%" viewBox="0 0 128 128" version="1.1" xmlns="http://www.w3.org/2000/svg" xmlns:xlink="http://www.w3.org/1999/xlink" xml:space="preserve" xmlns:serif="http://www.serif.com/" style="fill-rule:evenodd;clip-rule:evenodd;stroke-linejoin:round;stroke-miterlimit:2;">
    <path d="M117.33,103.96L90.59,77.22C96.6,67.91 98.95,56.71 97.19,45.77C95.43,34.83 89.69,24.93 81.06,17.97C72.44,11.01 61.54,7.49 50.48,8.08C39.42,8.67 28.96,13.34 21.13,21.18C13.3,29.02 8.65,39.48 8.06,50.54C7.48,61.6 11.01,72.49 17.98,81.11C24.95,89.73 34.85,95.46 45.79,97.21C56.73,98.96 67.93,96.6 77.24,90.58L103.97,117.32C105.7,119.03 108.03,119.99 110.46,119.99C112.89,119.99 115.22,119.03 116.95,117.32L117.33,116.94C119.04,115.21 120,112.88 120,110.45C120,108.02 119.04,105.69 117.33,103.96ZM77.04,77.06C70.63,83.47 61.94,87.07 52.87,87.07C43.8,87.07 35.11,83.47 28.7,77.06C22.29,70.65 18.69,61.95 18.69,52.89C18.69,43.83 22.29,35.13 28.7,28.72C35.11,22.31 43.81,18.71 52.87,18.71C61.94,18.71 70.63,22.31 77.04,28.72C83.45,35.13 87.05,43.82 87.05,52.89C87.05,61.96 83.45,70.65 77.04,77.06Z" style="fill:white;fill-rule:nonzero;"/>
    <path d="M66.09,46.78L59.25,46.78L59.25,39.8C59.25,38.45 58.72,37.15 57.76,36.2C56.8,35.25 55.5,34.72 54.15,34.73L51.9,34.73C50.55,34.72 49.26,35.25 48.31,36.2C47.36,37.15 46.83,38.45 46.85,39.8L46.85,46.8L39.8,46.8C38.44,46.8 37.13,47.33 36.16,48.29C35.19,49.25 34.64,50.55 34.62,51.91L34.62,54.13C34.65,55.48 35.21,56.77 36.18,57.71C37.15,58.65 38.45,59.18 39.8,59.18L46.81,59.18L46.81,66.03C46.8,67.38 47.33,68.68 48.29,69.63C49.25,70.58 50.55,71.11 51.91,71.09L54.14,71.09C55.49,71.1 56.79,70.57 57.74,69.62C58.69,68.67 59.24,67.38 59.24,66.03L59.24,59.18L66.07,59.18C67.42,59.18 68.72,58.65 69.67,57.69C70.62,56.73 71.15,55.43 71.14,54.08L71.14,51.9C71.16,50.55 70.64,49.24 69.69,48.28C68.74,47.32 67.44,46.78 66.09,46.78Z" style="fill:white;fill-rule:nonzero;"/>
</svg>
