<?xml version="1.0" encoding="UTF-8" standalone="no"?>
<!DOCTYPE svg PUBLIC "-//W3C//DTD SVG 1.1//EN" "http://www.w3.org/Graphics/SVG/1.1/DTD/svg11.dtd">
<svg width="100%" height="100%" viewBox="0 0 128 128" version="1.1" xmlns="http://www.w3.org/2000/svg" xmlns:xlink="http://www.w3.org/1999/xlink" xml:space="preserve" xmlns:serif="http://www.serif.com/" style="fill-rule:evenodd;clip-rule:evenodd;stroke-linejoin:round;stroke-miterlimit:2;">
    <path d="M117.33,103.96L90.59,77.22C96.6,67.91 98.95,56.71 97.19,45.77C95.43,34.83 89.69,24.93 81.06,17.97C72.44,11.01 61.54,7.49 50.48,8.08C39.42,8.67 28.96,13.34 21.13,21.18C13.3,29.02 8.65,39.48 8.06,50.54C7.48,61.6 11.01,72.49 17.98,81.11C24.95,89.73 34.85,95.46 45.79,97.21C56.73,98.96 67.93,96.6 77.24,90.58L103.97,117.32C105.7,119.03 108.03,119.99 110.46,119.99C112.89,119.99 115.22,119.03 116.95,117.32L117.33,116.94C119.04,115.21 120,112.88 120,110.45C120,108.02 119.04,105.69 117.33,103.96ZM77.04,77.06C70.63,83.47 61.94,87.07 52.87,87.07C43.8,87.07 35.11,83.47 28.7,77.06C22.29,70.65 18.69,61.95 18.69,52.89C18.69,43.83 22.29,35.13 28.7,28.72C35.11,22.31 43.81,18.71 52.87,18.71C61.94,18.71 70.63,22.31 77.04,28.72C83.45,35.13 87.05,43.82 87.05,52.89C87.05,61.96 83.45,70.65 77.04,77.06Z" style="fill:white;fill-rule:nonzero;"/>
    <path d="M66.08,46.78L39.79,46.78C38.43,46.78 37.12,47.32 36.15,48.28C35.18,49.24 34.63,50.54 34.61,51.9L34.61,54.12C34.64,55.47 35.2,56.76 36.17,57.7C37.14,58.64 38.44,59.17 39.79,59.17L66.06,59.17C67.41,59.17 68.71,58.64 69.66,57.68C70.61,56.72 71.14,55.42 71.13,54.07L71.13,51.89C71.15,50.54 70.63,49.23 69.68,48.27C68.73,47.31 67.43,46.77 66.08,46.77L66.08,46.78Z" style="fill:white;fill-rule:nonzero;"/>
</svg>
