<?xml version="1.0" encoding="UTF-8" standalone="no"?>
<!DOCTYPE svg PUBLIC "-//W3C//DTD SVG 1.1//EN" "http://www.w3.org/Graphics/SVG/1.1/DTD/svg11.dtd">
<svg width="100%" height="100%" viewBox="0 0 128 128" version="1.1" xmlns="http://www.w3.org/2000/svg" xmlns:xlink="http://www.w3.org/1999/xlink" xml:space="preserve" xmlns:serif="http://www.serif.com/" style="fill-rule:evenodd;clip-rule:evenodd;stroke-linejoin:round;stroke-miterlimit:2;">
    <path d="M8.29,98.19L11.12,116.94C11.47,119.53 14.66,120.48 16.43,118.71L29.75,105.27C31.87,103.15 33.41,100.67 34.7,98.08L8.52,89.35C8.05,92.3 7.81,95.25 8.28,98.19L8.29,98.19Z" style="fill:white;fill-rule:nonzero;"/>
    <path d="M60.52,21.66C61.7,18 59.69,14.11 56.16,12.93L42.25,8.33C38.59,7.15 34.7,9.16 33.52,12.69L11.35,79.91L38.47,88.87L60.52,21.66Z" style="fill:white;fill-rule:nonzero;"/>
    <path d="M115.26,110.8L42.13,110.8C39.65,110.8 37.53,112.8 37.53,115.4C37.53,118 39.53,120 42.13,120L115.26,120C117.74,120 119.86,118 119.86,115.4C119.86,112.81 117.86,110.8 115.26,110.8Z" style="fill:white;fill-rule:nonzero;"/>
    <path d="M49.67,94.12C49.67,96.6 51.67,98.72 54.27,98.72L115.37,98.72C117.85,98.72 119.97,96.72 119.97,94.12C119.97,91.52 117.97,89.52 115.37,89.52L54.27,89.52C51.68,89.52 49.67,91.53 49.67,94.12Z" style="fill:white;fill-rule:nonzero;"/>
    <path d="M56.71,72.85C56.71,75.33 58.71,77.45 61.31,77.45L115.38,77.45C117.86,77.45 119.98,75.45 119.98,72.85C119.98,70.25 117.98,68.25 115.38,68.25L61.31,68.25C58.72,68.25 56.71,70.26 56.71,72.85Z" style="fill:white;fill-rule:nonzero;"/>
</svg>
