<?xml version="1.0" encoding="UTF-8"?><svg id="Ebene_1" xmlns="http://www.w3.org/2000/svg" viewBox="0 0 128 128"><path d="m111.71,57.66l-16.57-8.17c-.66-.32-1.44-.12-1.87.47-.07.09-.14.18-.21.27l-.1.13-.11.13-3.48,4.06c-.64.74-.4,1.89.48,2.32l17.91,8.83c.91.44,1.05,1.25,1.05,1.68s-.13,1.24-1.04,1.69l-41.74,20.73c-1.24.62-2.73.62-3.97,0l-41.8-20.61c-.91-.44-1.05-1.24-1.05-1.68s.14-1.24,1.05-1.69l17.88-8.88c.88-.44,1.11-1.59.46-2.33l-3.4-3.91-.06-.07-.06-.07c-.14-.17-.27-.34-.4-.51-.44-.59-1.22-.8-1.87-.48l-16.54,8.22c-3.72,1.84-6.02,5.57-6.02,9.73.01,4.15,2.33,7.87,6.05,9.7l41.79,20.61c1.87.92,3.91,1.38,5.95,1.38s4.1-.47,5.97-1.4l41.74-20.73c3.72-1.84,6.02-5.57,6.02-9.72-.01-4.15-2.33-7.88-6.05-9.71Z"/><path d="m113.53,86.37l-47.52,23.59c-1.25.63-2.7.63-3.96,0l-47.58-23.47c-2.22-1.09-4.91-.18-6,2.04-1.09,2.22-.18,4.9,2.04,6l47.58,23.47c1.86.92,3.9,1.37,5.94,1.37s4.11-.47,5.98-1.4l47.51-23.59c2.22-1.1,3.12-3.79,2.02-6-1.1-2.21-3.79-3.13-6-2.02h0Z"/><path d="m87.38,43.65c-.02.58-.22,1.14-.61,1.63l-.05.06-6.02,7.02-14.02,16.36c-.68.79-1.63,1.19-2.59,1.19s-1.89-.39-2.58-1.17l-14.24-16.34-6.05-6.94s-.02-.03-.03-.04c-.41-.51-.57-1.01-.57-1.59,0-.34.08-.68.26-1.03.43-.85,1.28-1.46,2.22-1.46h10.79V11.1c0-1.37,1.11-2.48,2.48-2.48h15.34c1.36,0,2.47,1.11,2.47,2.48v30.08h10.8c.67,0,1.29.3,1.75.78.43.45.66,1.07.65,1.69Z"/></svg>