<?xml version="1.0" encoding="UTF-8" standalone="no"?>
<!DOCTYPE svg PUBLIC "-//W3C//DTD SVG 1.1//EN" "http://www.w3.org/Graphics/SVG/1.1/DTD/svg11.dtd">
<svg width="100%" height="100%" viewBox="0 0 128 128" version="1.1" xmlns="http://www.w3.org/2000/svg" xmlns:xlink="http://www.w3.org/1999/xlink" xml:space="preserve" xmlns:serif="http://www.serif.com/" style="fill-rule:evenodd;clip-rule:evenodd;stroke-linejoin:round;stroke-miterlimit:2;">
    <path d="M118.46,64.51C118.46,79.61 112.58,93.8 101.9,104.47C94.14,112.23 84.37,117.54 73.67,119.79C73.03,119.93 72.4,119.99 71.78,119.99C67.57,119.99 63.78,117.05 62.88,112.76C61.84,107.84 64.98,103 69.9,101.97C77.14,100.43 83.75,96.84 89.02,91.57C96.25,84.34 100.24,74.73 100.24,64.49C100.24,43.38 83.06,26.2 61.95,26.2C59.28,26.2 56.6,26.48 53.98,27.03C46.75,28.56 37.613,34.497 34.85,37.43L41.62,44.21C42.05,44.64 42.25,45.21 42.24,45.81C42.22,46.36 41.98,46.89 41.58,47.28C41.21,47.63 40.72,47.86 40.17,47.93L12.8,50.02C10.95,50.16 9.41,48.63 9.53,46.78L11.42,19.38C11.48,18.78 11.69,18.36 12.07,17.98C12.29,17.77 12.56,17.6 12.88,17.49C13.69,17.22 14.61,17.38 15.2,17.98L21.88,24.66L21.99,24.55C29.75,16.78 39.52,11.47 50.22,9.22C54.07,8.4 58.01,8 61.94,8C93.11,8 118.45,33.35 118.45,64.51L118.46,64.51Z" style="fill:white;fill-rule:nonzero;"/>
</svg>
